<svg width="260" height="82" viewBox="0 0 260 82" fill="none" xmlns="http://www.w3.org/2000/svg">
<path d="M258.555 72.1192C258.555 76.4636 255.246 79.9825 251.152 79.9825H8.85785C4.76584 79.9825 1.44434 76.4636 1.44434 72.1192V9.4118C1.44434 5.06952 4.76584 1.53821 8.85785 1.53821H251.15C255.246 1.53821 258.554 5.06952 258.554 9.4118L258.555 72.1192Z" fill="black"/>
<path d="M250.37 1.63299C254.829 1.63299 258.457 5.47211 258.457 10.1901V71.3306C258.457 76.0486 254.829 79.8877 250.37 79.8877H9.62963C5.17111 79.8877 1.54315 76.0486 1.54315 71.3306V10.1901C1.54315 5.47211 5.17111 1.63299 9.62963 1.63299H250.37ZM250.37 3.80012e-05H9.62963C4.33574 3.80012e-05 0 4.58812 0 10.1901V71.3306C0 76.9325 4.33574 81.5206 9.62963 81.5206H250.37C255.664 81.5206 260 76.9325 260 71.3306V10.1901C260 4.58812 255.664 3.80012e-05 250.37 3.80012e-05Z" fill="#A6A6A6"/>
<path d="M58.0244 40.3202C57.9685 33.7516 63.1069 30.556 63.3419 30.4072C60.4318 25.9175 55.9213 25.3041 54.3362 25.2551C50.5479 24.8333 46.8733 27.6539 44.9435 27.6539C42.9752 27.6539 40.0035 25.2959 36.8007 25.3652C32.6792 25.4325 28.8235 27.9576 26.7088 31.8787C22.3447 39.8738 25.5995 51.623 29.7807 58.0855C31.8722 61.2506 34.3162 64.7845 37.5152 64.6602C40.6448 64.5236 41.8139 62.5488 45.5906 62.5488C49.3327 62.5488 50.4305 64.6602 53.693 64.5807C57.0518 64.5236 59.1665 61.4014 61.1848 58.2078C63.6019 54.5801 64.5725 51.0075 64.6111 50.8241C64.5321 50.7955 58.0879 48.193 58.0244 40.3202Z" fill="white"/>
<path d="M51.8614 21.0039C53.5447 18.7763 54.6964 15.7458 54.3767 12.6704C51.9404 12.7845 48.8936 14.4537 47.1391 16.6323C45.5868 18.5521 44.2001 21.6988 44.5583 24.658C47.2951 24.874 50.105 23.1968 51.8614 21.0039Z" fill="white"/>
<path d="M103.316 64.2055H98.9425L96.5466 56.2389H88.2189L85.9367 64.2055H81.6785L89.9291 37.0836H95.0251L103.316 64.2055ZM95.8244 52.8966L93.6577 45.8145C93.4285 45.091 92.9991 43.3872 92.3654 40.7052H92.2884C92.0361 41.8587 91.6297 43.5625 91.0712 45.8145L88.9431 52.8966H95.8244Z" fill="white"/>
<path d="M124.534 54.1867C124.534 57.5127 123.685 60.1418 121.986 62.0718C120.465 63.7898 118.575 64.6478 116.32 64.6478C113.886 64.6478 112.137 63.7226 111.072 61.8721H110.995V72.1742H106.889V51.0869C106.889 48.9959 106.837 46.8499 106.737 44.6488H110.348L110.577 47.7486H110.654C112.023 45.4131 114.101 44.2473 116.89 44.2473C119.07 44.2473 120.89 45.1583 122.346 46.9823C123.806 48.8084 124.534 51.2092 124.534 54.1867ZM120.351 54.3457C120.351 52.4422 119.947 50.8729 119.134 49.6379C118.246 48.3498 117.054 47.7058 115.559 47.7058C114.546 47.7058 113.626 48.0645 112.803 48.7717C111.979 49.485 111.44 50.4164 111.188 51.5699C111.06 52.1079 110.997 52.5481 110.997 52.8946V56.1554C110.997 57.578 111.409 58.7784 112.233 59.7586C113.058 60.7389 114.128 61.2281 115.446 61.2281C116.992 61.2281 118.196 60.5963 119.057 59.3368C119.92 58.0752 120.351 56.4122 120.351 54.3457Z" fill="white"/>
<path d="M145.791 54.1867C145.791 57.5127 144.941 60.1418 143.241 62.0718C141.721 63.7898 139.832 64.6478 137.577 64.6478C135.142 64.6478 133.393 63.7226 132.33 61.8721H132.253V72.1742H128.147V51.0869C128.147 48.9959 128.095 46.8499 127.995 44.6488H131.606L131.835 47.7486H131.912C133.28 45.4131 135.358 44.2473 138.149 44.2473C140.327 44.2473 142.147 45.1583 143.607 46.9823C145.061 48.8084 145.791 51.2092 145.791 54.1867ZM141.608 54.3457C141.608 52.4422 141.201 50.8729 140.388 49.6379C139.501 48.3498 138.312 47.7058 136.816 47.7058C135.801 47.7058 134.882 48.0645 134.058 48.7717C133.234 49.485 132.696 50.4164 132.444 51.5699C132.319 52.1079 132.253 52.5481 132.253 52.8946V56.1554C132.253 57.578 132.665 58.7784 133.486 59.7586C134.31 60.7369 135.381 61.2281 136.702 61.2281C138.249 61.2281 139.452 60.5963 140.313 59.3368C141.176 58.0752 141.608 56.4122 141.608 54.3457Z" fill="white"/>
<path d="M169.556 56.5997C169.556 58.9068 168.8 60.7838 167.28 62.2328C165.61 63.8163 163.286 64.6071 160.299 64.6071C157.541 64.6071 155.33 64.0446 153.656 62.9176L154.607 59.296C156.41 60.4495 158.388 61.0283 160.543 61.0283C162.09 61.0283 163.293 60.6574 164.158 59.9196C165.019 59.1819 165.448 58.1914 165.448 56.9564C165.448 55.8559 165.094 54.9286 164.383 54.1765C163.677 53.4245 162.496 52.7255 160.847 52.0794C156.36 50.3084 154.118 47.714 154.118 44.3023C154.118 42.0728 154.904 40.2447 156.477 38.8221C158.045 37.3975 160.137 36.6863 162.752 36.6863C165.084 36.6863 167.022 37.1163 168.568 37.9743L167.542 41.5164C166.097 40.6849 164.464 40.2691 162.637 40.2691C161.192 40.2691 160.064 40.6461 159.255 41.3961C158.571 42.0666 158.228 42.8839 158.228 43.8519C158.228 44.9239 158.619 45.8105 159.405 46.5075C160.089 47.1515 161.331 47.8485 163.133 48.6005C165.339 49.54 166.958 50.6385 168 51.898C169.038 53.1534 169.556 54.7247 169.556 56.5997Z" fill="white"/>
<path d="M183.132 47.9096H178.606V57.4047C178.606 59.8198 179.404 61.0263 181.002 61.0263C181.736 61.0263 182.345 60.959 182.826 60.8245L182.94 64.124C182.131 64.444 181.066 64.605 179.747 64.605C178.125 64.605 176.858 64.0812 175.943 63.0357C175.032 61.9882 174.574 60.2314 174.574 57.7634V47.9055H171.877V44.6447H174.574V41.0639L178.606 39.7759V44.6447H183.132V47.9096Z" fill="white"/>
<path d="M203.553 54.2662C203.553 57.2723 202.74 59.7403 201.119 61.6703C199.418 63.6574 197.161 64.6479 194.347 64.6479C191.635 64.6479 189.476 63.6961 187.866 61.7926C186.256 59.8891 185.451 57.4863 185.451 54.5903C185.451 51.5597 186.279 49.0774 187.941 47.1474C189.6 45.2154 191.838 44.2494 194.651 44.2494C197.363 44.2494 199.545 45.2011 201.192 47.1067C202.767 48.9552 203.553 51.3417 203.553 54.2662ZM199.293 54.4069C199.293 52.6032 198.929 51.0564 198.191 49.7663C197.33 48.2052 196.1 47.4267 194.505 47.4267C192.854 47.4267 191.601 48.2072 190.74 49.7663C190.002 51.0584 189.638 52.6297 189.638 54.4884C189.638 56.292 190.002 57.8389 190.74 59.1269C191.628 60.688 192.868 61.4665 194.468 61.4665C196.036 61.4665 197.267 60.6717 198.155 59.0861C198.911 57.7716 199.293 56.2085 199.293 54.4069Z" fill="white"/>
<path d="M216.9 48.4701C216.493 48.3906 216.06 48.3498 215.605 48.3498C214.161 48.3498 213.044 48.9266 212.258 50.0821C211.575 51.1012 211.232 52.3892 211.232 53.9442V64.2056H207.128L207.166 50.8077C207.166 48.5536 207.114 46.5014 207.012 44.6508H210.588L210.739 48.3926H210.852C211.286 47.1067 211.969 46.0713 212.905 45.2949C213.82 44.5958 214.808 44.2473 215.873 44.2473C216.253 44.2473 216.595 44.2758 216.9 44.3268V48.4701Z" fill="white"/>
<path d="M235.263 53.5019C235.263 54.2804 235.215 54.9366 235.113 55.4726H222.795C222.843 57.4047 223.438 58.8822 224.582 59.9012C225.62 60.8122 226.963 61.2688 228.611 61.2688C230.435 61.2688 232.099 60.961 233.595 60.3435L234.239 63.3598C232.49 64.1668 230.425 64.5683 228.043 64.5683C225.177 64.5683 222.928 63.6756 221.291 61.8924C219.658 60.1091 218.839 57.7145 218.839 54.7104C218.839 51.7614 219.6 49.3056 221.123 47.3471C222.718 45.2561 224.873 44.2106 227.585 44.2106C230.248 44.2106 232.265 45.2561 233.634 47.3471C234.718 49.0081 235.263 51.0624 235.263 53.5019ZM231.348 52.3749C231.375 51.0868 231.107 49.9741 230.551 49.0345C229.84 47.826 228.748 47.2228 227.278 47.2228C225.936 47.2228 224.844 47.8117 224.01 48.9938C223.326 49.9333 222.92 51.0603 222.795 52.3728H231.348V52.3749Z" fill="white"/>
<path d="M94.4666 20.3986C94.4666 22.7974 93.7868 24.6031 92.429 25.8157C91.1714 26.9345 89.3841 27.495 87.0691 27.495C85.9213 27.495 84.9391 27.442 84.1167 27.336V14.2296C85.1894 14.0461 86.345 13.9524 87.593 13.9524C89.7982 13.9524 91.4603 14.4599 92.5812 15.4748C93.8369 16.6222 94.4666 18.2628 94.4666 20.3986ZM92.3385 20.4577C92.3385 18.9027 91.9495 17.7105 91.1714 16.879C90.3933 16.0495 89.257 15.6338 87.7606 15.6338C87.125 15.6338 86.5838 15.6786 86.1351 15.7723V25.7362C86.3835 25.777 86.838 25.7953 87.4986 25.7953C89.0432 25.7953 90.2354 25.3408 91.0751 24.4319C91.9148 23.5229 92.3385 22.1982 92.3385 20.4577Z" fill="white"/>
<path d="M105.751 22.4937C105.751 23.9713 105.352 25.1819 104.555 26.1316C103.719 27.1078 102.611 27.5949 101.229 27.5949C99.8958 27.5949 98.8346 27.1282 98.0431 26.1907C97.2535 25.2553 96.8586 24.0752 96.8586 22.6527C96.8586 21.165 97.265 19.9442 98.0816 18.9965C98.8982 18.0488 99.996 17.574 101.379 17.574C102.712 17.574 103.782 18.0407 104.593 18.9761C105.364 19.8851 105.751 21.059 105.751 22.4937ZM103.657 22.563C103.657 21.6765 103.476 20.9163 103.116 20.2825C102.692 19.5162 102.089 19.1331 101.306 19.1331C100.495 19.1331 99.8785 19.5162 99.4548 20.2825C99.0927 20.9163 98.9136 21.6887 98.9136 22.6018C98.9136 23.4883 99.0946 24.2485 99.4548 24.8823C99.892 25.6486 100.501 26.0317 101.286 26.0317C102.057 26.0317 102.661 25.6425 103.097 24.8619C103.47 24.2159 103.657 23.4496 103.657 22.563Z" fill="white"/>
<path d="M120.881 17.7694L118.04 27.3766H116.191L115.014 23.2048C114.716 22.1634 114.473 21.1281 114.284 20.1009H114.248C114.073 21.1566 113.83 22.1899 113.518 23.2048L112.268 27.3766H110.398L107.727 17.7694H109.801L110.827 22.3366C111.076 23.4167 111.28 24.4459 111.444 25.4201H111.48C111.631 24.6171 111.879 23.5941 112.229 22.357L113.518 17.7714H115.163L116.397 22.2592C116.696 23.3536 116.938 24.4072 117.125 25.4222H117.181C117.318 24.4337 117.524 23.3801 117.797 22.2592L118.899 17.7714H120.881V17.7694Z" fill="white"/>
<path d="M131.344 27.3767H129.326V21.8741C129.326 20.1784 128.717 19.3306 127.496 19.3306C126.897 19.3306 126.414 19.563 126.038 20.0297C125.667 20.4964 125.478 21.0466 125.478 21.6764V27.3747H123.46V20.5147C123.46 19.671 123.435 18.7559 123.386 17.7654H125.16L125.255 19.2675H125.31C125.545 18.8007 125.896 18.4156 126.356 18.1078C126.903 17.7491 127.516 17.5677 128.186 17.5677C129.033 17.5677 129.738 17.8571 130.299 18.438C130.996 19.1492 131.344 20.2111 131.344 21.6214V27.3767Z" fill="white"/>
<path d="M136.91 27.3768H134.894V13.3613H136.91V27.3768Z" fill="white"/>
<path d="M148.793 22.4937C148.793 23.9713 148.395 25.1819 147.597 26.1316C146.761 27.1078 145.652 27.5949 144.271 27.5949C142.937 27.5949 141.875 27.1282 141.086 26.1907C140.296 25.2553 139.901 24.0752 139.901 22.6527C139.901 21.165 140.308 19.9442 141.124 18.9965C141.941 18.0488 143.039 17.574 144.419 17.574C145.754 17.574 146.823 18.0407 147.636 18.9761C148.406 19.8851 148.793 21.059 148.793 22.4937ZM146.698 22.563C146.698 21.6765 146.517 20.9163 146.157 20.2825C145.735 19.5162 145.13 19.1331 144.348 19.1331C143.535 19.1331 142.919 19.5162 142.497 20.2825C142.135 20.9163 141.956 21.6887 141.956 22.6018C141.956 23.4883 142.137 24.2485 142.497 24.8823C142.935 25.6486 143.543 26.0317 144.329 26.0317C145.099 26.0317 145.702 25.6425 146.137 24.8619C146.513 24.2159 146.698 23.4496 146.698 22.563Z" fill="white"/>
<path d="M158.561 27.3768H156.749L156.599 26.2702H156.543C155.923 27.1526 155.039 27.5949 153.891 27.5949C153.034 27.5949 152.341 27.3035 151.819 26.7247C151.345 26.1989 151.108 25.5446 151.108 24.7682C151.108 23.5943 151.57 22.6996 152.501 22.08C153.429 21.4605 154.735 21.1568 156.416 21.1711V20.9917C156.416 19.7261 155.788 19.0943 154.531 19.0943C153.635 19.0943 152.845 19.3328 152.164 19.8056L151.753 18.4034C152.597 17.8511 153.639 17.574 154.868 17.574C157.24 17.574 158.431 18.8987 158.431 21.5481V25.0861C158.431 26.046 158.475 26.8103 158.561 27.3768ZM156.466 24.0752V22.5936C154.24 22.5528 153.127 23.1989 153.127 24.5297C153.127 25.0311 153.254 25.4061 153.514 25.6567C153.774 25.9074 154.105 26.0317 154.5 26.0317C154.943 26.0317 155.357 25.883 155.734 25.5874C156.114 25.2899 156.347 24.9129 156.433 24.4502C156.455 24.3463 156.466 24.2199 156.466 24.0752Z" fill="white"/>
<path d="M170.03 27.3768H168.239L168.145 25.834H168.089C167.517 27.0079 166.543 27.5948 165.173 27.5948C164.079 27.5948 163.168 27.1403 162.446 26.2314C161.724 25.3224 161.364 24.1424 161.364 22.6934C161.364 21.1384 161.755 19.8789 162.541 18.917C163.301 18.0202 164.233 17.5719 165.343 17.5719C166.562 17.5719 167.415 18.006 167.9 18.8762H167.939V13.3613H169.959V24.7885C169.959 25.7239 169.982 26.586 170.03 27.3768ZM167.939 23.3252V21.7233C167.939 21.4461 167.92 21.222 167.883 21.0508C167.769 20.5372 167.525 20.1051 167.153 19.7566C166.778 19.4081 166.325 19.2328 165.803 19.2328C165.05 19.2328 164.461 19.5487 164.027 20.1826C163.598 20.8164 163.38 21.6255 163.38 22.6139C163.38 23.5636 163.586 24.334 164 24.9271C164.438 25.5588 165.027 25.8747 165.764 25.8747C166.427 25.8747 166.957 25.6118 167.359 25.084C167.748 24.5969 167.939 24.01 167.939 23.3252Z" fill="white"/>
<path d="M187.293 22.4937C187.293 23.9713 186.894 25.1819 186.097 26.1316C185.261 27.1078 184.155 27.5949 182.77 27.5949C181.44 27.5949 180.378 27.1282 179.585 26.1907C178.795 25.2553 178.401 24.0752 178.401 22.6527C178.401 21.165 178.807 19.9442 179.623 18.9965C180.44 18.0488 181.538 17.574 182.923 17.574C184.253 17.574 185.326 18.0407 186.135 18.9761C186.905 19.8851 187.293 21.059 187.293 22.4937ZM185.201 22.563C185.201 21.6765 185.02 20.9163 184.66 20.2825C184.234 19.5162 183.633 19.1331 182.847 19.1331C182.039 19.1331 181.422 19.5162 180.997 20.2825C180.635 20.9163 180.455 21.6887 180.455 22.6018C180.455 23.4883 180.637 24.2485 180.997 24.8823C181.434 25.6486 182.042 26.0317 182.828 26.0317C183.599 26.0317 184.205 25.6425 184.641 24.8619C185.012 24.2159 185.201 23.4496 185.201 22.563Z" fill="white"/>
<path d="M198.145 27.3767H196.129V21.8741C196.129 20.1784 195.52 19.3306 194.297 19.3306C193.698 19.3306 193.215 19.563 192.841 20.0297C192.467 20.4964 192.281 21.0466 192.281 21.6764V27.3747H190.26V20.5147C190.26 19.671 190.237 18.7559 190.189 17.7654H191.961L192.055 19.2675H192.111C192.348 18.8007 192.698 18.4156 193.157 18.1078C193.706 17.7491 194.316 17.5677 194.988 17.5677C195.834 17.5677 196.539 17.8571 197.099 18.438C197.798 19.1492 198.145 20.2111 198.145 21.6214V27.3767Z" fill="white"/>
<path d="M211.729 19.3694H209.506V24.0365C209.506 25.2226 209.901 25.8157 210.683 25.8157C211.045 25.8157 211.345 25.7831 211.582 25.7158L211.634 27.336C211.236 27.495 210.712 27.5745 210.067 27.5745C209.269 27.5745 208.649 27.3177 208.2 26.8041C207.75 26.2905 207.526 25.4264 207.526 24.2138V19.3694H206.199V17.7696H207.526V16.0087L209.504 15.377V17.7675H211.727V19.3694H211.729Z" fill="white"/>
<path d="M222.414 27.3768H220.393V21.9149C220.393 20.1928 219.785 19.3307 218.566 19.3307C217.63 19.3307 216.99 19.83 216.64 20.8286C216.58 21.0385 216.545 21.2953 216.545 21.5969V27.3747H214.529V13.3613H216.545V19.1513H216.584C217.219 18.0977 218.13 17.5719 219.311 17.5719C220.147 17.5719 220.838 17.8613 221.387 18.4421C222.071 19.1656 222.414 20.2417 222.414 21.6642V27.3768Z" fill="white"/>
<path d="M233.436 22.1187C233.436 22.5018 233.409 22.8238 233.36 23.0867H227.307C227.334 24.0364 227.623 24.7599 228.184 25.2613C228.696 25.7096 229.356 25.9338 230.165 25.9338C231.061 25.9338 231.877 25.783 232.613 25.4793L232.929 26.963C232.068 27.3584 231.055 27.5561 229.882 27.5561C228.476 27.5561 227.369 27.1179 226.568 26.2416C225.763 25.3652 225.364 24.1893 225.364 22.7138C225.364 21.2647 225.736 20.0582 226.485 19.0963C227.267 18.0691 228.324 17.5555 229.659 17.5555C230.965 17.5555 231.956 18.0691 232.627 19.0963C233.168 19.9115 233.436 20.9203 233.436 22.1187ZM231.51 21.5664C231.525 20.9325 231.392 20.3863 231.119 19.9258C230.768 19.3327 230.235 19.0351 229.512 19.0351C228.854 19.0351 228.316 19.3245 227.906 19.9054C227.571 20.368 227.373 20.9203 227.307 21.5664H231.51Z" fill="white"/>
</svg>
