<svg width="246" height="78" viewBox="0 0 246 78" fill="none" xmlns="http://www.w3.org/2000/svg">
<path d="M236.667 77.0587H9.10259C4.09844 77.0587 0 72.7218 0 67.4264V9.6323C0 4.33692 4.09844 -4.16666e-05 9.10259 -4.16666e-05H236.667C241.672 -4.16666e-05 245.77 4.33692 245.77 9.6323V67.4264C245.77 72.7218 241.672 77.0587 236.667 77.0587Z" fill="black"/>
<path d="M236.667 1.54354C240.882 1.54354 244.311 5.17253 244.311 9.6323V67.4264C244.311 71.8861 240.882 75.5151 236.667 75.5151H9.10259C4.88809 75.5151 1.45869 71.8861 1.45869 67.4264V9.6323C1.45869 5.17253 4.88809 1.54354 9.10259 1.54354H236.667ZM236.667 -4.16666e-05H9.10259C4.09844 -4.16666e-05 0 4.33692 0 9.6323V67.4264C0 72.7218 4.09844 77.0587 9.10259 77.0587H236.667C241.672 77.0587 245.77 72.7218 245.77 67.4264V9.6323C245.77 4.33692 241.672 -4.16666e-05 236.667 -4.16666e-05Z" fill="#A6A6A6"/>
<path d="M86.3244 19.7343C86.3244 21.3429 85.8693 22.6312 84.9727 23.592C83.9418 24.7311 82.5992 25.3042 80.9539 25.3042C79.3814 25.3042 78.0388 24.7214 76.9373 23.5728C75.8337 22.4073 75.283 20.9768 75.283 19.2647C75.283 17.5526 75.8337 16.1221 76.9373 14.9663C78.0388 13.808 79.3814 13.2252 80.9539 13.2252C81.7367 13.2252 82.4831 13.3962 83.1954 13.7141C83.9054 14.0343 84.4834 14.4678 84.9021 15.0024L83.9509 16.0186C83.2204 15.1059 82.226 14.6556 80.9539 14.6556C79.8069 14.6556 78.8125 15.0794 77.9682 15.9343C77.1331 16.7916 76.7143 17.9017 76.7143 19.2647C76.7143 20.6277 77.1331 21.7474 77.9682 22.6047C78.8125 23.45 79.8069 23.8834 80.9539 23.8834C82.1713 23.8834 83.1954 23.45 84.0032 22.5951C84.5357 22.0292 84.8384 21.249 84.9181 20.252H80.9539V18.8601H86.2425C86.3062 19.1612 86.3244 19.4525 86.3244 19.7343Z" fill="white" stroke="white" stroke-width="0.16" stroke-miterlimit="10"/>
<path d="M94.7147 14.9084H89.7469V18.5686H94.2254V19.9605H89.7469V23.6208H94.7147V25.0392H88.3406V13.49H94.7147V14.9084Z" fill="white" stroke="white" stroke-width="0.16" stroke-miterlimit="10"/>
<path d="M100.636 25.0392H99.2295V14.9084H96.1824V13.49H103.685V14.9084H100.636V25.0392Z" fill="white" stroke="white" stroke-width="0.16" stroke-miterlimit="10"/>
<path d="M109.115 25.0392V13.49H110.519V25.0392H109.115Z" fill="white" stroke="white" stroke-width="0.16" stroke-miterlimit="10"/>
<path d="M116.743 25.0392H115.348V14.9084H112.289V13.49H119.801V14.9084H116.743V25.0392Z" fill="white" stroke="white" stroke-width="0.16" stroke-miterlimit="10"/>
<path d="M134.006 23.5535C132.93 24.7214 131.596 25.3042 130.005 25.3042C128.406 25.3042 127.072 24.7214 125.996 23.5535C124.921 22.388 124.387 20.9576 124.387 19.2647C124.387 17.5718 124.921 16.1414 125.996 14.9759C127.072 13.808 128.406 13.2252 130.005 13.2252C131.587 13.2252 132.92 13.808 133.997 14.9855C135.08 16.1607 135.615 17.5814 135.615 19.2647C135.615 20.9576 135.08 22.388 134.006 23.5535ZM127.036 22.5855C127.846 23.45 128.831 23.8834 130.005 23.8834C131.17 23.8834 132.165 23.45 132.966 22.5855C133.774 21.7209 134.183 20.6108 134.183 19.2647C134.183 17.9186 133.774 16.8085 132.966 15.944C132.165 15.0794 131.17 14.646 130.005 14.646C128.831 14.646 127.846 15.0794 127.036 15.944C126.228 16.8085 125.818 17.9186 125.818 19.2647C125.818 20.6108 126.228 21.7209 127.036 22.5855Z" fill="white" stroke="white" stroke-width="0.16" stroke-miterlimit="10"/>
<path d="M137.588 25.0392V13.49H139.295L144.601 22.4722H144.663L144.601 20.2519V13.49H146.006V25.0392H144.54L138.983 15.6139H138.921L138.983 17.8438V25.0392H137.588Z" fill="white" stroke="white" stroke-width="0.16" stroke-miterlimit="10"/>
<path d="M124.041 41.9056C119.765 41.9056 116.272 45.3491 116.272 50.1003C116.272 54.8129 119.765 58.2926 124.041 58.2926C128.326 58.2926 131.819 54.8129 131.819 50.1003C131.819 45.3491 128.326 41.9056 124.041 41.9056ZM124.041 55.0658C121.695 55.0658 119.676 53.0165 119.676 50.1003C119.676 47.1456 121.695 45.1324 124.041 45.1324C126.387 45.1324 128.415 47.1456 128.415 50.1003C128.415 53.0165 126.387 55.0658 124.041 55.0658ZM107.09 41.9056C102.805 41.9056 99.3207 45.3491 99.3207 50.1003C99.3207 54.8129 102.805 58.2926 107.09 58.2926C111.373 58.2926 114.859 54.8129 114.859 50.1003C114.859 45.3491 111.373 41.9056 107.09 41.9056ZM107.09 55.0658C104.741 55.0658 102.716 53.0165 102.716 50.1003C102.716 47.1456 104.741 45.1324 107.09 45.1324C109.436 45.1324 111.454 47.1456 111.454 50.1003C111.454 53.0165 109.436 55.0658 107.09 55.0658ZM86.9184 44.4172V47.8993H94.7762C94.5464 49.845 93.932 51.2754 92.9898 52.2724C91.8429 53.4764 90.0565 54.8129 86.9184 54.8129C82.0827 54.8129 78.296 50.683 78.296 45.5659C78.296 40.4487 82.0827 36.3188 86.9184 36.3188C89.5331 36.3188 91.4356 37.4 92.8396 38.8015L95.1585 36.3477C93.1946 34.3634 90.5822 32.8391 86.9184 32.8391C80.2872 32.8391 74.7141 38.5487 74.7141 45.5659C74.7141 52.583 80.2872 58.2926 86.9184 58.2926C90.5026 58.2926 93.1946 57.05 95.311 54.719C97.4797 52.4241 98.1556 49.1972 98.1556 46.5917C98.1556 45.7826 98.0918 45.0385 97.9781 44.4172H86.9184ZM169.402 47.1167C168.762 45.2841 166.789 41.9056 162.77 41.9056C158.788 41.9056 155.472 45.2263 155.472 50.1003C155.472 54.6901 158.754 58.2926 163.153 58.2926C166.709 58.2926 168.762 55.9977 169.606 54.6612L166.967 52.7997C166.086 54.1627 164.887 55.0658 163.153 55.0658C161.43 55.0658 160.194 54.2302 159.402 52.583L169.759 48.0486L169.402 47.1167ZM158.843 49.845C158.754 46.6856 161.161 45.0674 162.886 45.0674C164.238 45.0674 165.385 45.7826 165.767 46.806L158.843 49.845ZM150.425 57.7941H153.829V33.7133H150.425V57.7941ZM144.85 43.7309H144.736C143.971 42.7725 142.512 41.9056 140.665 41.9056C136.787 41.9056 133.241 45.5081 133.241 50.1268C133.241 54.719 136.787 58.2926 140.665 58.2926C142.512 58.2926 143.971 57.4185 144.736 56.4311H144.85V57.6063C144.85 60.7392 143.268 62.4225 140.717 62.4225C138.637 62.4225 137.347 60.8331 136.814 59.4966L133.854 60.8042C134.707 62.9763 136.967 65.6493 140.717 65.6493C144.708 65.6493 148.076 63.1641 148.076 57.1174V42.404H144.85V43.7309ZM140.956 55.0658C138.61 55.0658 136.646 52.9876 136.646 50.1268C136.646 47.2395 138.61 45.1324 140.956 45.1324C143.268 45.1324 145.091 47.2395 145.091 50.1268C145.091 52.9876 143.268 55.0658 140.956 55.0658ZM185.34 33.7133H177.198V57.7941H180.593V48.6699H185.34C189.111 48.6699 192.809 45.7826 192.809 41.1904C192.809 36.6006 189.102 33.7133 185.34 33.7133ZM185.429 45.3202H180.593V37.0629H185.429C187.964 37.0629 189.411 39.2904 189.411 41.1904C189.411 43.0542 187.964 45.3202 185.429 45.3202ZM206.417 41.8598C203.964 41.8598 201.413 43.0061 200.364 45.5466L203.377 46.8831C204.026 45.5466 205.218 45.1131 206.479 45.1131C208.24 45.1131 210.026 46.2329 210.054 48.2099V48.4628C209.439 48.0871 208.124 47.5309 206.506 47.5309C203.261 47.5309 199.954 49.4212 199.954 52.949C199.954 56.1759 202.612 58.2541 205.6 58.2541C207.885 58.2541 209.146 57.1632 209.938 55.8941H210.054V57.7556H213.333V48.5182C213.333 44.2486 210.32 41.8598 206.417 41.8598ZM206.008 55.0561C204.897 55.0561 203.35 54.4734 203.35 53.0165C203.35 51.1526 205.279 50.4374 206.95 50.4374C208.445 50.4374 209.146 50.7866 210.054 51.2465C209.787 53.4764 207.974 55.0561 206.008 55.0561ZM225.28 42.3872L221.377 52.8262H221.261L217.227 42.3872H213.565L219.627 56.9754L216.168 65.093H219.716L229.058 42.3872H225.28ZM194.675 57.7941H198.079V33.7133H194.675V57.7941Z" fill="white"/>
<path d="M18.9971 14.5231C18.4623 15.1155 18.1528 16.0378 18.1528 17.2322V59.836C18.1528 61.0304 18.4623 61.9527 18.9971 62.5451L19.1291 62.6752L41.6898 38.811V38.2475L19.1291 14.3834L18.9971 14.5231Z" fill="url(#paint0_linear_163_552)"/>
<path d="M49.2019 46.7698L41.6899 38.8111V38.2476L49.211 30.2888L49.3794 30.3924L58.2862 35.7552C60.8281 37.2771 60.8281 39.7815 58.2862 41.3131L49.3794 46.6662L49.2019 46.7698Z" fill="url(#paint1_linear_163_552)"/>
<path d="M49.3792 46.6662L41.6898 38.5292L18.9971 62.5451C19.8413 63.4842 21.2181 63.5974 22.7837 62.6583L49.3792 46.6662Z" fill="url(#paint2_linear_163_552)"/>
<path d="M49.3792 30.3924L22.7837 14.4003C21.2181 13.4708 19.8413 13.5839 18.9971 14.5231L41.6898 38.5293L49.3792 30.3924Z" fill="url(#paint3_linear_163_552)"/>
<defs>
<linearGradient id="paint0_linear_163_552" x1="39.6867" y1="60.2797" x2="7.40761" y2="29.7759" gradientUnits="userSpaceOnUse">
<stop stop-color="#00A0FF"/>
<stop offset="0.0066" stop-color="#00A1FF"/>
<stop offset="0.2601" stop-color="#00BEFF"/>
<stop offset="0.5122" stop-color="#00D2FF"/>
<stop offset="0.7604" stop-color="#00DFFF"/>
<stop offset="1" stop-color="#00E3FF"/>
</linearGradient>
<linearGradient id="paint1_linear_163_552" x1="61.5962" y1="38.5266" x2="17.5453" y2="38.5266" gradientUnits="userSpaceOnUse">
<stop stop-color="#FFE000"/>
<stop offset="0.4087" stop-color="#FFBD00"/>
<stop offset="0.7754" stop-color="#FFA500"/>
<stop offset="1" stop-color="#FF9C00"/>
</linearGradient>
<linearGradient id="paint2_linear_163_552" x1="45.198" y1="34.1059" x2="1.42486" y2="-7.25982" gradientUnits="userSpaceOnUse">
<stop stop-color="#FF3A44"/>
<stop offset="1" stop-color="#C31162"/>
</linearGradient>
<linearGradient id="paint3_linear_163_552" x1="13.2848" y1="76.7193" x2="32.8315" y2="58.2478" gradientUnits="userSpaceOnUse">
<stop stop-color="#32A071"/>
<stop offset="0.0685" stop-color="#2DA771"/>
<stop offset="0.4762" stop-color="#15CF74"/>
<stop offset="0.8009" stop-color="#06E775"/>
<stop offset="1" stop-color="#00F076"/>
</linearGradient>
</defs>
</svg>
